<svg width="24" height="24" viewBox="0 0 24 24" fill="none" xmlns="http://www.w3.org/2000/svg">
<g id="coca-cola-6 1">
<rect width="24" height="24" rx="4" fill="#E41F2B"/>
<g id="Group 1217">
<path id="Vector" d="M0.012207 8H23.9876V16.784H0.012207V8Z" fill="#E41F2B"/>
<g id="Group">
<path id="Vector_2" d="M21.6134 10.1063C21.6227 10.048 21.6576 9.99908 21.6833 9.95015C21.7392 9.83831 21.7951 9.7288 21.8254 9.60764C21.837 9.55638 21.858 9.49347 21.8114 9.45386C21.7578 9.40726 21.6996 9.44687 21.6506 9.47483C21.5178 9.55172 21.4013 9.64725 21.2872 9.74511C20.9377 10.041 20.6255 10.3765 20.3389 10.7353C19.8076 11.4017 19.3393 12.11 18.9106 12.844C18.8244 12.9908 18.7382 13.1376 18.6636 13.3053C18.7289 13.3053 18.7661 13.268 18.8034 13.2401C19.0108 13.0816 19.2112 12.9162 19.4022 12.7415C19.7121 12.4595 20.0103 12.166 20.2993 11.8607C20.5159 11.6324 20.7233 11.3971 20.9167 11.1478C21.0076 11.0313 21.0798 11.0056 21.2452 11.0359C21.201 11.1408 21.1287 11.227 21.0588 11.3132C20.6627 11.8025 20.2387 12.2661 19.7843 12.7018C19.3906 13.077 18.9712 13.4241 18.5215 13.7294C18.4376 13.7853 18.3794 13.8505 18.3374 13.9461C18.2233 14.2047 18.1161 14.468 18.0299 14.7382C17.9996 14.8338 17.9739 14.9316 17.9576 15.0318C17.946 15.0971 17.9483 15.1623 17.9646 15.2275C17.9972 15.351 18.0811 15.393 18.1906 15.3254C18.3118 15.2532 18.405 15.146 18.4935 15.0388C18.7265 14.7615 18.9176 14.454 19.1203 14.1557C19.3929 13.7573 19.6841 13.3752 20.036 13.042C20.22 12.8673 20.4227 12.7182 20.6418 12.5923C20.7606 12.5248 20.8934 12.4898 21.0309 12.4875C21.194 12.4852 21.3268 12.5411 21.4153 12.6832C21.42 12.6925 21.4316 12.6972 21.4386 12.7018C21.4456 12.6995 21.4503 12.6995 21.4526 12.6995C21.5108 12.5597 21.625 12.5457 21.7578 12.5527C21.9 12.562 22.0444 12.5527 22.1889 12.5551C22.2704 12.5574 22.2797 12.5714 22.2378 12.6436L21.6926 13.5663C21.385 14.0882 21.0751 14.6078 20.7839 15.139C20.7559 15.1879 20.714 15.2462 20.7653 15.2974C20.8165 15.351 20.8748 15.3091 20.9237 15.2788C21.0565 15.1972 21.173 15.0947 21.2778 14.9782C21.4759 14.7592 21.6576 14.5262 21.83 14.2886C21.886 14.2117 22.0001 14.1767 22.0863 14.2093C22.1143 14.221 22.1213 14.2396 22.1096 14.2629C22.1003 14.2839 22.0863 14.3025 22.0724 14.3235C21.8254 14.701 21.5458 15.0528 21.2336 15.379C21.0635 15.5537 20.8841 15.7215 20.6721 15.8473C20.5579 15.9149 20.4391 15.9685 20.3062 15.9918C20.0826 16.0314 19.9125 15.9195 19.8938 15.6959C19.8892 15.6306 19.8799 15.5677 19.8729 15.5001C19.817 15.5001 19.796 15.5421 19.7657 15.57C19.6026 15.7145 19.4302 15.845 19.2321 15.9428C19.1273 15.9941 19.0178 16.0127 18.9036 15.9941C18.7242 15.9638 18.5984 15.8263 18.5727 15.6376C18.5588 15.5421 18.5658 15.4466 18.5658 15.3394C18.5145 15.358 18.4935 15.3953 18.4632 15.4256C18.3025 15.5957 18.137 15.7588 17.9367 15.8799C17.8458 15.9358 17.7479 15.9731 17.6454 15.9941C17.3984 16.043 17.1678 15.8543 17.1235 15.5794C17.0955 15.3976 17.1212 15.2229 17.1631 15.0481C17.2214 14.7988 17.3099 14.5565 17.3915 14.3142C17.4008 14.2886 17.4101 14.2629 17.4171 14.2373C17.445 14.1441 17.4404 14.1418 17.3402 14.1534C17.3285 14.1557 17.3169 14.1557 17.3052 14.1581C17.035 14.1767 17.0862 14.1557 16.9511 14.3724C16.7391 14.7126 16.5107 15.0388 16.2311 15.3301C16.0168 15.5537 15.7791 15.7425 15.5065 15.8892C15.397 15.9498 15.2782 15.9848 15.1523 15.9988C14.8984 16.0244 14.712 15.8916 14.6561 15.6423C14.6048 15.4116 14.6398 15.1856 14.7073 14.9642C14.8192 14.6031 14.9823 14.2629 15.1966 13.9507C15.4203 13.6268 15.658 13.317 15.9492 13.0513C16.1799 12.8393 16.4338 12.6622 16.7251 12.5481C16.8276 12.5085 16.9324 12.4852 17.042 12.4875C17.3262 12.4898 17.4683 12.6296 17.4846 12.9162C17.4963 13.1212 17.459 13.317 17.3868 13.508C17.3449 13.6199 17.2983 13.7317 17.2447 13.8389C17.2307 13.8645 17.2027 13.8948 17.2214 13.9251C17.2447 13.9624 17.2866 13.9344 17.3192 13.9321C17.3472 13.9321 17.3728 13.9228 17.3984 13.9181C17.5126 13.8971 17.5872 13.8342 17.6408 13.727C17.967 13.0793 18.3351 12.4525 18.7498 11.8561C19.2578 11.1268 19.8333 10.4558 20.5043 9.87326C20.7792 9.6356 21.0565 9.39561 21.3943 9.24183C21.5272 9.18126 21.6623 9.13699 21.8091 9.14398C21.9815 9.15097 22.0607 9.23018 22.07 9.40493C22.077 9.53541 22.0467 9.6589 22.0025 9.78006C21.9792 9.84064 21.9489 9.90122 21.9209 9.95947C21.8557 10.0853 21.7718 10.1249 21.6134 10.1063ZM19.6259 15.3021C19.6888 15.2998 19.7494 15.2532 19.8076 15.1996C20.0197 15.0085 20.1851 14.7755 20.3342 14.5355C20.6301 14.0649 20.9144 13.5896 21.2056 13.1166C21.2289 13.077 21.2545 13.0374 21.2685 12.9931C21.2965 12.9046 21.2452 12.8463 21.152 12.8603C21.0705 12.8719 20.9936 12.9022 20.9307 12.9581C20.8165 13.063 20.693 13.1585 20.5882 13.2727C20.4111 13.4684 20.2387 13.6688 20.0896 13.8855C19.8682 14.2047 19.6608 14.5332 19.5257 14.9013C19.4977 14.9782 19.4721 15.0574 19.4675 15.1367C19.4605 15.2438 19.5141 15.3044 19.6259 15.3021ZM16.2265 13.6338C16.1682 13.6851 16.1309 13.755 16.0867 13.8179C15.8816 14.1115 15.6952 14.4144 15.5694 14.7522C15.5345 14.8431 15.5112 14.9386 15.5042 15.0341C15.4879 15.2415 15.63 15.3487 15.8234 15.2741C15.9189 15.2369 16.0005 15.1786 16.075 15.111C16.3546 14.8594 16.569 14.5542 16.7577 14.2326C16.8183 14.1301 16.8159 14.1278 16.7041 14.0695C16.548 13.988 16.4082 13.8878 16.3057 13.7387C16.2824 13.7037 16.2684 13.6618 16.2265 13.6338ZM17.24 13.0886V13.042C17.2284 12.844 17.1095 12.7694 16.9231 12.8393C16.8113 12.8813 16.7181 12.9488 16.6412 13.0374C16.5643 13.1259 16.5084 13.2261 16.5014 13.3496C16.4828 13.6362 16.6901 13.7969 16.8905 13.8831C16.9418 13.9041 16.9697 13.8762 16.9907 13.8342C17.0536 13.7154 17.1188 13.5942 17.1585 13.4637C17.1957 13.3403 17.2447 13.2191 17.24 13.0886ZM10.8139 10.9567C10.8489 10.8518 10.9281 10.8425 11.0213 10.8472C11.1681 10.8518 11.3172 10.8495 11.464 10.8495C11.6038 10.8495 11.6108 10.8612 11.5362 10.9847C11.3755 11.2549 11.2124 11.5229 11.0493 11.7932C10.737 12.3127 10.4248 12.83 10.1126 13.3496C10.0916 13.3869 10.0707 13.4241 10.066 13.4684C10.0567 13.5569 10.1033 13.5966 10.1848 13.5639C10.2268 13.5476 10.2664 13.5197 10.306 13.494C10.532 13.3403 10.7137 13.1376 10.8885 12.9279C10.9724 12.8277 11.0539 12.7228 11.1378 12.6203C11.1914 12.5527 11.3335 12.5154 11.4104 12.5481C11.4314 12.5574 11.4384 12.576 11.4267 12.5947C11.4104 12.6203 11.3918 12.6459 11.3731 12.6716C11.1425 12.9838 10.9071 13.2937 10.6369 13.5709C10.3945 13.8202 10.1429 14.0672 9.82137 14.2187C9.71885 14.2676 9.61167 14.3072 9.4975 14.2909C9.33207 14.2676 9.22023 14.1441 9.20625 13.9647C9.20159 13.9158 9.20625 13.8645 9.20625 13.8039C9.15034 13.8226 9.12937 13.8622 9.09908 13.8901C8.96394 14.0206 8.81482 14.1301 8.64473 14.2117C8.53056 14.2653 8.41173 14.2909 8.28359 14.2862C8.05758 14.2769 7.91778 14.1394 7.90613 13.9111C7.89914 13.7899 7.91545 13.6711 7.93875 13.5523C7.94574 13.5197 7.96438 13.487 7.94574 13.4428C7.82458 13.5523 7.7174 13.6688 7.59158 13.7666C7.40286 13.9158 7.2118 14.0626 6.99045 14.1651C6.79007 14.2559 6.58504 14.3212 6.35903 14.2839C6.08409 14.2373 5.84876 14.016 5.81847 13.7084C5.79284 13.4381 5.85575 13.1841 5.95128 12.9372C6.03283 12.7228 6.13302 12.5178 6.26816 12.2964C6.14933 12.3244 6.05846 12.3454 5.96526 12.3663C5.92565 12.3756 5.91167 12.4083 5.89536 12.4386C5.65771 12.8556 5.3618 13.2284 5.03327 13.5756C4.87017 13.748 4.69776 13.9088 4.50437 14.0462C4.3669 14.1418 4.22244 14.2233 4.05934 14.2676C3.6982 14.3678 3.40229 14.1604 3.37433 13.7853C3.35802 13.5639 3.39297 13.3496 3.46054 13.1422C3.61432 12.6809 3.8613 12.2708 4.16419 11.891C4.37855 11.6231 4.61621 11.3784 4.88881 11.1711C5.09385 11.0149 5.31287 10.8821 5.55985 10.8052C5.6647 10.7726 5.77187 10.7517 5.88138 10.768C6.13069 10.8006 6.28214 10.966 6.29612 11.22C6.3101 11.4786 6.23554 11.7186 6.13535 11.9516C6.11904 11.9889 6.08875 12.0238 6.09807 12.0774C6.16098 12.0821 6.21224 12.0564 6.2635 12.0308C6.46155 11.9353 6.63163 11.8025 6.79706 11.6603C6.98579 11.4972 7.15122 11.3132 7.34694 11.1594C7.53333 11.0126 7.72905 10.8798 7.95739 10.8052C8.10418 10.7563 8.25563 10.754 8.40474 10.7889C8.65172 10.8472 8.78686 11.0988 8.72628 11.3784C8.67968 11.5928 8.57483 11.7768 8.42571 11.9353C8.37678 11.9865 8.32087 12.0285 8.2533 12.0495C8.07389 12.1054 7.93875 11.9842 7.97836 11.8025C8.02729 11.5718 8.16243 11.4204 8.39542 11.3691C8.45367 11.3551 8.50027 11.3458 8.49794 11.2712C8.49561 11.199 8.456 11.1431 8.38377 11.1314C8.31854 11.1198 8.2533 11.1314 8.19039 11.1571C8.05059 11.213 7.94108 11.3132 7.83157 11.4134C7.33063 11.8747 6.98113 12.4362 6.73415 13.0677C6.68755 13.1841 6.65493 13.303 6.66425 13.4311C6.68056 13.6967 6.84133 13.8156 7.09763 13.741C7.28869 13.6851 7.44246 13.5663 7.58692 13.4358C7.96438 13.0933 8.28359 12.6972 8.58648 12.2871C8.83812 11.9469 9.10607 11.6184 9.41595 11.3295C9.63963 11.1198 9.87263 10.9194 10.1709 10.8146C10.2291 10.7936 10.2897 10.7796 10.3526 10.7726C10.4924 10.7563 10.6136 10.7936 10.7161 10.8891C10.744 10.9078 10.7627 10.9404 10.8139 10.9567ZM10.5041 11.1268C10.4621 11.1245 10.4155 11.1431 10.3689 11.1641C10.2478 11.22 10.1685 11.3202 10.08 11.4134C9.66526 11.8584 9.31576 12.3523 9.0152 12.8789C8.91967 13.0467 8.83113 13.2214 8.80084 13.4171C8.77987 13.5593 8.85909 13.6245 8.9919 13.5733C9.10374 13.5313 9.19228 13.4568 9.26916 13.3682C9.45556 13.1539 9.61866 12.9232 9.77244 12.6855C10.0637 12.2312 10.3386 11.7675 10.6042 11.2992C10.6718 11.1874 10.6369 11.1268 10.5041 11.1268ZM5.00298 11.8933C4.99599 11.8957 4.98667 11.898 4.98434 11.9027C4.75368 12.2242 4.53699 12.5551 4.38554 12.9209C4.32962 13.056 4.28535 13.1981 4.29001 13.3496C4.29467 13.515 4.39486 13.5919 4.56029 13.5569C4.68378 13.5313 4.77931 13.4614 4.87017 13.3799C5.14278 13.1329 5.35248 12.8347 5.54587 12.5271C5.56917 12.4921 5.59247 12.4549 5.61344 12.4176C5.65305 12.3454 5.65072 12.336 5.57849 12.3081C5.56684 12.3034 5.55752 12.3011 5.54587 12.2964C5.34316 12.2172 5.16608 12.1054 5.04259 11.919C5.03094 11.9073 5.02162 11.8957 5.00298 11.8933ZM5.27326 11.6883C5.27093 11.7396 5.28724 11.7908 5.31753 11.8374C5.41539 11.9865 5.56451 12.0564 5.73226 12.0891C5.78352 12.0984 5.81148 12.0728 5.83245 12.0285C5.9373 11.8258 6.0072 11.6114 6.02118 11.3854C6.03283 11.2037 5.94895 11.0895 5.77653 11.1105C5.53655 11.1408 5.27326 11.439 5.27326 11.6883Z" fill="white"/>
<path id="Vector_3" d="M16.6645 9.42834C16.5829 9.37475 16.5084 9.38873 16.4361 9.39805C16.2544 9.42135 16.096 9.50057 15.9375 9.58911C15.5368 9.81045 15.1849 10.097 14.8541 10.4093C14.423 10.8147 14.0246 11.248 13.6774 11.728C13.2953 12.2523 12.9528 12.8021 12.6965 13.4009C12.5334 13.7854 12.4123 14.1815 12.3587 14.5962C12.333 14.8036 12.3587 15.0086 12.4798 15.188C12.615 15.3907 12.8503 15.4839 13.0903 15.435C13.2208 15.4071 13.3419 15.3535 13.4538 15.2836C13.7613 15.0878 14.0176 14.8339 14.2366 14.545C14.4417 14.2747 14.6141 13.9858 14.7306 13.6642C14.7865 13.5058 14.8261 13.345 14.8378 13.1773C14.8401 13.154 14.8401 13.1307 14.8378 13.1074C14.8238 12.8697 14.6677 12.7882 14.4626 12.9163C14.3089 13.0118 14.197 13.154 14.0992 13.3031C13.9803 13.4872 13.8988 13.6899 13.8499 13.9019C13.8359 13.9601 13.8102 13.9951 13.7543 14.023C13.4538 14.1675 13.1951 14.3702 12.9575 14.6009C12.9458 14.6125 12.9342 14.6218 12.9225 14.6312C12.9179 14.6358 12.9086 14.6335 12.9016 14.6358C12.8759 14.6195 12.8853 14.5939 12.8876 14.5729C12.9458 14.1652 13.06 13.7761 13.2813 13.4242C13.505 13.0678 13.7986 12.7858 14.1784 12.5994C14.3485 12.5156 14.5256 12.462 14.7189 12.5086C14.8681 12.5458 14.9729 12.6367 15.0312 12.7812C15.0941 12.9373 15.0871 13.1004 15.0731 13.2635C15.0475 13.5734 14.9216 13.8483 14.7818 14.1186C14.6397 14.3958 14.472 14.6568 14.2739 14.8968C13.9407 15.3045 13.5516 15.647 13.0716 15.8707C12.799 15.9989 12.5078 16.0478 12.2096 15.9779C11.8251 15.8847 11.5828 15.6307 11.457 15.2673C11.3125 14.8525 11.3335 14.4308 11.4686 14.0207C11.648 13.4685 11.9043 12.9513 12.1956 12.448C12.4193 12.0635 12.6686 11.7001 12.9505 11.3576C13.3955 10.8147 13.8965 10.33 14.4673 9.91996C14.8354 9.65668 15.2199 9.42601 15.6369 9.25126C15.9049 9.13942 16.1845 9.08117 16.4757 9.0835C16.6318 9.08583 16.7763 9.1301 16.8975 9.22563C16.9487 9.26524 16.9883 9.26757 17.0443 9.2466C17.3005 9.14641 17.5685 9.09981 17.8411 9.09049C18.2302 9.07651 18.596 9.16971 18.9362 9.35378C19.3113 9.55649 19.6864 9.76385 20.0592 9.96889C20.0732 9.97588 20.0872 9.98287 20.0988 9.99219C20.1618 10.0341 20.1618 10.0411 20.1082 10.097C19.9614 10.2462 19.8123 10.3929 19.6678 10.5467C19.6189 10.598 19.5769 10.5933 19.5257 10.5607L18.9944 10.2462C18.7614 10.1064 18.5284 9.96423 18.2954 9.82909C18.0392 9.67997 17.7619 9.57979 17.4706 9.51921C17.3751 9.49824 17.2773 9.49591 17.1817 9.51688C17.1375 9.5262 17.1072 9.54484 17.1072 9.60076C17.0978 10.0761 16.9301 10.5048 16.7017 10.9102C16.527 11.2201 16.301 11.4904 16.0004 11.6931C15.8699 11.7793 15.7301 11.8469 15.581 11.8888C15.3201 11.9657 15.1127 11.8166 15.0964 11.544C15.0871 11.3739 15.1267 11.2131 15.1896 11.057C15.3643 10.6236 15.6556 10.2718 15.9888 9.95258C16.1752 9.7755 16.3779 9.6194 16.5946 9.48193C16.6109 9.46329 16.6295 9.45164 16.6645 9.42834ZM16.8439 9.81045C16.8485 9.62872 16.8439 9.62173 16.7181 9.69162C16.4804 9.82443 16.2707 9.99685 16.0773 10.1902C15.7931 10.4722 15.5624 10.7914 15.3923 11.1525C15.3504 11.2434 15.3154 11.3389 15.3131 11.4414C15.3108 11.6045 15.4296 11.6907 15.5834 11.6418C15.7651 11.5859 15.9142 11.4764 16.054 11.3482C16.294 11.1246 16.4734 10.8589 16.6179 10.57C16.7437 10.3207 16.8252 10.0528 16.8439 9.81045ZM10.7743 16.1433C10.6555 16.0781 10.5553 16.0198 10.4504 15.9686C9.99608 15.7496 9.52077 15.6214 9.0105 15.647C8.74256 15.661 8.50024 15.7379 8.29986 15.922C8.26957 15.9499 8.24161 15.9826 8.21365 16.0152C8.1321 16.113 8.12977 16.1154 8.05988 16.0128C7.94105 15.8404 7.78727 15.7076 7.6032 15.6051C7.33758 15.456 7.04867 15.3907 6.74577 15.3651C6.18425 15.3185 5.63903 15.414 5.09848 15.5445C4.50667 15.689 3.91485 15.8334 3.31372 15.9383C3.03412 15.9872 2.7522 16.0222 2.46794 15.9756C1.96466 15.8917 1.53828 15.6797 1.2447 15.2486C1.11655 15.0622 1.06296 14.8479 1.02569 14.6288C0.939476 14.1279 1.00705 13.6386 1.16082 13.161C1.34955 12.5715 1.64546 12.0379 2.00427 11.5346C2.32581 11.0826 2.69861 10.6772 3.10402 10.3044C3.59798 9.85006 4.14319 9.46562 4.77461 9.22097C5.03324 9.12078 5.29886 9.05554 5.58078 9.05554C5.99785 9.05787 6.23784 9.31883 6.17959 9.72657C6.14464 9.96889 6.03979 10.1856 5.86271 10.3603C5.79747 10.4232 5.72291 10.4698 5.62971 10.4861C5.50855 10.5071 5.40604 10.4372 5.38041 10.3161C5.3408 10.1273 5.44099 9.91064 5.61573 9.81278C5.68796 9.77317 5.76252 9.74055 5.84407 9.73123C5.89999 9.72424 5.92096 9.68929 5.92562 9.63571C5.93727 9.50057 5.86271 9.41203 5.72524 9.40271C5.62738 9.39572 5.53185 9.41436 5.43866 9.44465C5.0845 9.56348 4.77461 9.76385 4.49269 10.0062C3.84728 10.563 3.30906 11.2154 2.84073 11.9237C2.53085 12.3921 2.29086 12.8977 2.14174 13.4406C2.04854 13.7807 1.97864 14.1279 2.00427 14.4867C2.02524 14.7849 2.13009 15.0436 2.3561 15.2486C2.48425 15.3628 2.63337 15.435 2.79414 15.4816C2.93859 15.5235 3.08771 15.5515 3.24149 15.5585C3.72612 15.5841 4.20144 15.5119 4.67209 15.4024C5.28488 15.2579 5.89533 15.1135 6.50811 14.969C6.95547 14.8618 7.40748 14.7873 7.86649 14.7966C8.65402 14.8129 9.38097 15.0226 10.038 15.4653C10.271 15.6214 10.4807 15.8055 10.6788 16.0035C10.716 16.0361 10.7533 16.0711 10.7743 16.1433ZM23.5961 9.12311C23.6078 9.16272 23.5891 9.18369 23.5752 9.20699C23.2327 9.77317 22.7806 10.2275 22.1982 10.5467C21.8207 10.7541 21.4223 10.8986 20.9889 10.9382C20.8095 10.9545 20.6324 10.9452 20.4553 10.9079C20.3668 10.8892 20.3598 10.8729 20.4134 10.8054C20.5485 10.6353 20.6907 10.4698 20.8398 10.3114C20.8771 10.2718 20.9213 10.2741 20.9679 10.2741C21.138 10.2741 21.3081 10.2811 21.4805 10.2578C21.872 10.2042 22.2284 10.0598 22.5733 9.87569C22.9274 9.68463 23.242 9.43999 23.5356 9.16505C23.5472 9.1534 23.5589 9.14408 23.5705 9.13476C23.5752 9.12777 23.5822 9.12777 23.5961 9.12311ZM12.4542 10.8473C12.5427 10.8473 12.6336 10.845 12.7222 10.8473C12.7804 10.8496 12.7921 10.8683 12.7594 10.9195C12.6569 11.0896 12.5521 11.255 12.4472 11.4251C12.4216 11.4671 12.389 11.4834 12.3424 11.481C12.1676 11.481 11.9929 11.4834 11.8181 11.4787C11.7389 11.4787 11.7273 11.4577 11.7692 11.3878C11.8671 11.2247 11.9672 11.064 12.0674 10.9009C12.0931 10.8589 12.1257 10.8426 12.1746 10.845C12.2678 10.8473 12.361 10.8473 12.4542 10.8473Z" fill="white"/>
</g>
</g>
</g>
</svg>
